# xmcd CD database file
#
# Track frame offsets:
#	187
#	8915
#	20280
#	29597
#	39877
#	51310
#	62070
#	74627
#	89687
#	101280
#	116900
#	127415
#	142650
#	152400
#	162932
#	174102
#	183140
#	191650
#	200935
#	210247
#
# Disc length: 2952 seconds
#
# Revision: 1
# Processed by: cddbd v1.5.2PL0 Copyright (c) Steve Scherf et al.
# Submitted via: jetAudio 7
#
DISCID=150b8614
DTITLE=Chet Atkins - Best Selection [BMG]
DYEAR=1900
DGENRE=Country
TTITLE0=Country Gentleman
TTITLE1=Rainbow
TTITLE2=Yankee Doodle Dixie
TTITLE3=Main Street Breakedown
TTITLE4=Django's Castle (Manoir De Mes Rêves)
TTITLE5=Meet Mr. Callaghan
TTITLE6=South
TTITLE7=Indiana (Black Home Again In Indiana)
TTITLE8=Alabama Jubilee
TTITLE9=Caravan
TTITLE10=Corrine, Corrina
TTITLE11=The Birth Of The Blues
TTITLE12=Menphis Blues
TTITLE13=12th Street Rag
TTITLE14=Galloping On The Guitar
TTITLE15=Chainatown, My Chinatown
TTITLE16=Oh! By Django! Oh! By Gee! You're The Only Girl For Me
TTITLE17=Yakety Axe
TTITLE18=Freight Train
TTITLE19=Wheels
EXTD=
EXTT0=
EXTT1=
EXTT2=
EXTT3=
EXTT4=
EXTT5=
EXTT6=
EXTT7=
EXTT8=
EXTT9=
EXTT10=
EXTT11=
EXTT12=
EXTT13=
EXTT14=
EXTT15=
EXTT16=
EXTT17=
EXTT18=
EXTT19=
PLAYORDER=
